PathFileType	4	(X/Y/Z)	E:\Qualisys_Data\Carbon_Farble_Plate\Data\Amateur_Runner\S2\T2\S2T2V11_c3d.trc
DataRate	CameraRate	NumFrames	NumMarkers	Units	OrigDataRate	OrigDataStartFrame	OrigNumFrames
200.000000	200.000000	4	39	mm	200.000000	40	326
Frame#	Time	LSHO			RSHO			LICST			RICST			LASIS			LHEEL			RASIS			LTROC			RTROC			SACR			LTH1			LSK4			LTH2			LTH3			RHM5			LSK2			LTH4			RTH1			LTOE			RTH2			RTH3			RTH4			LLEP			RLEP			LSK1			LSK3			RSK1			LHM5			RSK2			LFT1			RSK3			RSK4			LLME			RLME			RTOE			RHEEL			RFT1			RFT2			LFT2			
		X1	Y1	Z1	X2	Y2	Z2	X3	Y3	Z3	X4	Y4	Z4	X5	Y5	Z5	X6	Y6	Z6	X7	Y7	Z7	X8	Y8	Z8	X9	Y9	Z9	X10	Y10	Z10	X11	Y11	Z11	X12	Y12	Z12	X13	Y13	Z13	X14	Y14	Z14	X15	Y15	Z15	X16	Y16	Z16	X17	Y17	Z17	X18	Y18	Z18	X19	Y19	Z19	X20	Y20	Z20	X21	Y21	Z21	X22	Y22	Z22	X23	Y23	Z23	X24	Y24	Z24	X25	Y25	Z25	X26	Y26	Z26	X27	Y27	Z27	X28	Y28	Z28	X29	Y29	Z29	X30	Y30	Z30	X31	Y31	Z31	X32	Y32	Z32	X33	Y33	Z33	X34	Y34	Z34	X35	Y35	Z35	X36	Y36	Z36	X37	Y37	Z37	X38	Y38	Z38	X39	Y39	Z39	

41	0.2	-2105.263427734375	1440.16943359375	-509.109130859375	-2100.364501953125	1405.872436523438	-189.3968505859375	-2158.702392578125	967.8052368164062	-510.9222717285156	-2154.738525390625	956.8001098632812	-205.3302917480469	-2098.014404296875	922.2767944335938	-495.3961486816406	-2430.24462890625	398.0722351074219	-414.7631225585938	-2090.640625	916.1239013671876	-231.5728912353516	-2219.373046875	835.7015380859375	-510.2590637207031	-2234.32861328125	851.1881713867188	-208.7500152587891	-2244.3291015625	1004.384643554688	-359.384033203125	-2032.6533203125	644.9175415039062	-534.4398803710938	-2248.234619140625	446.0850219726562	-507.0685729980469	-2111.928466796875	618.46875	-536.01708984375	-2000.882446289062	547.00634765625	-520.8098754882812	-2234.40869140625	75.78557586669922	-263.1847229003906	-2154.781005859375	477.0180053710938	-524.7996826171875	-2083.055908203125	522.9404907226562	-518.4539794921875	-2085.55126953125	600.92919921875	-215.1012115478516	-2358.577392578125	166.3134613037109	-471.2604370117188	-2162.78271484375	597.6197509765625	-212.8341522216797	-2082.786376953125	504.32373046875	-246.1669769287109	-2162.191650390625	501.9494934082031	-237.8984985351562	-2035.75048828125	480.3981628417969	-521.6170654296875	-2128.90283203125	458.3577270507812	-242.4985046386719	-2128.810546875	400.9964294433594	-519.0289306640625	-2225.178466796875	371.3254089355469	-509.149658203125	-2142.92626953125	335.8341064453125	-254.4554595947266	-2400.703857421875	219.1226196289062	-519.0604248046875	-2210.913330078125	374.1147155761719	-235.2035827636719	-2451.48046875	376.0442504882812	-390.8648681640625	-2196.010986328125	249.4541473388672	-271.3157348632812	-2261.57080078125	289.6833190917969	-251.1819000244141	-2403.245361328125	352.3137817382812	-482.1379699707031	-2330.41552734375	121.7579116821289	-294.4893188476562	-2161.691650390625	70.87660217285156	-323.6693115234375	-2403.054443359375	118.8197021484375	-354.7264709472656	-2391.144775390625	83.64667510986328	-378.3983764648438	-2408.06494140625	92.38687133789062	-325.9927978515625	-2463.12548828125	388.7733459472656	-444.2601318359375
42	0.205	-2092.1005859375	1443.036254882812	-509.8090209960938	-2081.80029296875	1409.125854492188	-190.0510559082031	-2142.191650390625	971.1131591796876	-510.9903869628906	-2136.503173828125	959.352783203125	-205.0812225341797	-2082.0205078125	925.22265625	-495.224609375	-2406.41552734375	390.8150329589844	-415.9404602050781	-2074.52197265625	918.0106811523438	-231.8371276855469	-2202.095947265625	839.1918334960938	-511.7785949707031	-2217.6171875	853.561279296875	-208.48583984375	-2227.651611328125	1007.508056640625	-358.5576782226562	-2013.127197265625	650.0744018554688	-534.5709838867188	-2224.518798828125	445.6580505371094	-506.9665832519531	-2091.56640625	622.4624633789062	-536.0106201171875	-1978.864501953125	553.3524169921875	-520.3217163085938	-2234.0244140625	76.1786117553711	-263.5440063476562	-2132.25830078125	478.7904663085938	-524.3085327148438	-2060.33984375	527.234619140625	-517.2142944335938	-2077.736328125	601.6190185546875	-214.76611328125	-2325.7353515625	163.0067291259766	-472.6364440917969	-2155.314453125	599.901123046875	-213.2889099121094	-2075.830810546875	505.1592407226562	-246.9246826171875	-2155.82568359375	506.450439453125	-239.4271697998047	-2012.992553710938	486.1017150878906	-520.6273803710938	-2122.46923828125	460.3933715820312	-242.9441223144531	-2103.5126953125	403.5281982421875	-517.8973999023438	-2198.380615234375	371.22900390625	-508.1459045410156	-2139.077880859375	337.367919921875	-253.94677734375	-2368.774169921875	213.0973358154297	-519.3923950195312	-2206.641845703125	376.3021850585938	-234.9814453125	-2426.032470703125	367.3575439453125	-391.1671142578125	-2194.083740234375	251.8627624511719	-271.2614440917969	-2258.951904296875	292.8897705078125	-251.5059967041016	-2377.662841796875	346.5858154296875	-483.3832092285156	-2329.282470703125	124.734619140625	-294.7456359863281	-2161.361572265625	70.6068115234375	-323.8277893066406	-2400.894287109375	122.4449310302734	-355.3764038085938	-2390.18505859375	85.75627899169922	-378.4520874023438	-2406.947509765625	95.7357940673828	-326.0003051757812	-2438.22998046875	379.3324890136719	-443.4305419921875
43	0.21	-2078.29443359375	1446.759765625	-510.0694885253906	-2062.697509765625	1412.970581054688	-191.0486755371094	-2125.82763671875	974.3591918945312	-511.1705932617188	-2119.002197265625	962.2986450195312	-205.6111907958984	-2065.37255859375	928.6773071289062	-494.8556213378906	-2381.725341796875	382.3870239257812	-414.7021484375	-2057.51220703125	919.8417358398438	-231.8078460693359	-2184.796630859375	843.1026000976562	-513.8274536132812	-2201.763671875	856.85302734375	-208.9017333984375	-2210.91015625	1011.088195800781	-358.1765441894531	-1992.85107421875	655.7357177734375	-533.8601684570312	-2200.781005859375	444.7810668945312	-506.6232604980469	-2071.501953125	626.880859375	-536.173583984375	-1957.530883789062	560.3413696289062	-518.9772338867188	-2234.0029296875	76.66686248779297	-263.737548828125	-2108.67578125	481.070556640625	-522.9059448242188	-2038.152954101562	532.49755859375	-516.6980590820312	-2068.5625	603.9314575195312	-215.0401458740234	-2290.4560546875	158.7721862792969	-472.6994018554688	-2146.02685546875	603.5039672851562	-213.59521484375	-2067.8046875	506.9800109863281	-246.82568359375	-2148.75	509.8888854980469	-240.1462860107422	-1990.22216796875	492.083984375	-519.53564453125	-2116.398193359375	462.3471374511719	-243.0390472412109	-2078.626708984375	406.330078125	-517.3889770507812	-2172.785400390625	371.2146301269531	-507.8574829101562	-2135.62451171875	339.3391418457031	-254.0003509521484	-2335.5283203125	207.5325775146484	-519.6439819335938	-2202.1953125	379.4109191894531	-235.0028381347656	-2401.437255859375	359.0132446289062	-392.045654296875	-2190.45263671875	254.428466796875	-270.6404113769531	-2256.346435546875	296.6044616699219	-251.7776641845703	-2349.842041015625	339.7069091796875	-482.4774169921875	-2328.20654296875	128.2820739746094	-294.6601867675781	-2161.17578125	70.60623168945312	-324.4528198242188	-2399.092041015625	127.061882019043	-355.0160827636719	-2388.940673828125	90.09303283691406	-378.2845153808594	-2405.1005859375	99.56846618652344	-325.828857421875	-2413.588134765625	370.1225280761719	-444.0074462890625
44	0.215	-2064.7607421875	1450.699829101562	-510.2236938476562	-2044.571899414062	1416.752685546875	-192.4076843261719	-2108.893310546875	978.3751831054688	-511.0576477050781	-2100.41162109375	965.9570922851562	-206.1710815429688	-2048.645751953125	932.4972534179688	-494.6945190429688	-2358.060546875	375.2421875	-416.2423400878906	-2040.044555664062	922.7325439453124	-232.2070770263672	-2167.48974609375	847.73486328125	-515.4864501953125	-2185.760498046875	860.37451171875	-209.2439880371094	-2193.47607421875	1014.356323242188	-357.4685668945312	-1972.744140625	661.7164306640625	-533.4766845703125	-2177.206298828125	443.3009033203125	-506.0705261230469	-2050.82275390625	631.2825927734375	-535.761474609375	-1936.269897460938	566.9071655273438	-517.9749145507812	-2233.23974609375	77.20452117919922	-263.4481506347656	-2087.193359375	483.1560363769531	-522.39453125	-2017.00341796875	537.8057250976562	-515.8234252929688	-2059.225830078125	607.8499145507812	-216.3031158447266	-2255.798095703125	154.9473724365234	-473.7033996582031	-2135.823486328125	607.81103515625	-214.1752319335938	-2060.996337890625	509.786376953125	-246.2256164550781	-2140.445068359375	513.897216796875	-240.4548645019531	-1968.116333007812	498.4570007324219	-518.1416625976562	-2111.305908203125	465.7024230957031	-243.4165191650391	-2054.078125	409.4461975097656	-516.44287109375	-2147.533447265625	371.8604431152344	-508.0630798339844	-2130.912109375	341.6131896972656	-254.7331085205078	-2303.2939453125	202.1051330566406	-521.2470092773438	-2198.95068359375	382.7151794433594	-235.741943359375	-2376.001708984375	349.3267517089844	-392.326171875	-2188.052001953125	257.83642578125	-270.3994140625	-2252.074951171875	299.9833984375	-251.4082183837891	-2319.724609375	331.6672668457031	-479.4716796875	-2324.4482421875	131.8188323974609	-293.8235778808594	-2160.10986328125	70.17020416259766	-323.8208923339844	-2396.44921875	132.0673065185547	-353.794189453125	-2387.309814453125	95.70513153076172	-377.9201965332031	-2403.498291015625	104.9848861694336	-325.1150207519531	-2388.521728515625	360.9766540527344	-445.149169921875
